<?xml version="1.0" encoding="utf-8"?>
<!-- Generator: Adobe Illustrator 22.0.1, SVG Export Plug-In . SVG Version: 6.00 Build 0)  -->
<svg version="1.1" id="Layer_1" xmlns="http://www.w3.org/2000/svg" xmlns:xlink="http://www.w3.org/1999/xlink" x="0px" y="0px"
	 viewBox="0 0 250.7 70.7" style="enable-background:new 0 0 250.7 70.7;" xml:space="preserve">
<style type="text/css">
	.st0{fill:none;stroke:#FFFFFF;stroke-width:1.154;stroke-miterlimit:10;}
	.st1{fill:none;stroke:#FFFFFF;stroke-width:1.1535;stroke-miterlimit:10;}
	.st2{fill:#FFFFFF;}
</style>
<g>
	<line class="st0" x1="250.7" y1="58.6" x2="185.4" y2="58.6"/>
	<line class="st1" x1="65.2" y1="58.6" x2="0" y2="58.6"/>
	<g>
		<path class="st2" d="M49,34.1c0,0.3-0.2,0.4-0.5,0.4h-1.2c-1.6-0.1-2.6,0.2-2.8,0.8c-0.1,0.4-0.2,2-0.2,4.6v1.7
			c-1.8,1.6-3.6,2.6-5.2,3.3c-1.7,0.6-3.7,1-6,1c-5.6,0-10.1-1.7-13.4-5c-3.3-3.4-4.9-7.9-4.9-13.6c0-5.8,1.6-10.5,4.8-14.1
			c3.2-3.6,7.5-5.4,12.8-5.4c2.3,0,4.8,0.6,7.6,1.9c0.8,0.4,1.5,0.6,2,0.6c0.7,0,1.1-0.4,1.3-1.3c0.2-0.5,0.4-0.7,0.6-0.7
			c0.3,0,0.4,0.1,0.4,0.4c0,0.1,0,0.5-0.1,1.1c-0.2,2-0.3,3.5-0.3,4.4v3.5c0,1.2,0.1,1.8,0.1,1.6c-0.1,0.9-0.3,1.3-0.7,1.3
			c-0.3,0-0.5-0.2-0.5-0.7c-0.2-3.5-1.2-6.2-3-8.2c-1.8-2-4.2-3-7.1-3c-3.7,0-6.6,1.7-8.8,5c-2.1,3.3-3.2,7.8-3.2,13.5
			c0,5.5,1.1,9.8,3.3,13c2.2,3.2,5.1,4.8,8.9,4.8c2.8,0,4.8-0.8,5.9-2.4c0.5-0.8,0.8-2.3,0.8-4.4c0-1.8-0.2-2.8-0.5-3.1
			c-0.3-0.3-1.5-0.5-3.5-0.4c-0.5,0-0.8,0-1-0.1c-0.1-0.1-0.2-0.2-0.2-0.3c0-0.4,0.4-0.6,1.2-0.6h1c0.5,0,2.4,0,5.6,0h4.5
			c0.2,0,0.5,0,0.8,0c0.3,0,0.5,0,0.6,0C48.6,33.6,49,33.8,49,34.1z"/>
		<path class="st2" d="M82.7,8.8c0,0.3-0.3,0.4-1,0.4c-0.1,0-0.5,0-1.1,0c-0.2,0-0.4,0-0.7,0c-0.9,0-1.4,0.2-1.6,0.7
			c-0.1,0.2-0.1,0.7-0.1,1.2v19.9c0,5.2-1,8.9-2.9,11.3c-1.9,2.4-5,3.5-9.3,3.5c-5.1,0-8.8-1.5-10.9-4.4c-1.4-2-2.1-5.2-2.1-9.6
			V10.6c-0.1-0.6-0.5-1-1.3-1.2c-0.2,0-0.9-0.1-2-0.1c-0.6-0.1-0.9-0.2-0.9-0.5c0-0.3,0.2-0.5,0.7-0.5h1c0.2,0,0.6,0,1.2,0
			c0.6,0,1.1,0,1.5,0H61c0.2,0,0.4,0,0.6,0c0.6,0,0.9,0.2,0.9,0.6c0,0.2-0.1,0.4-0.3,0.4c-0.2,0-0.9,0.1-2.1,0.1c-0.5,0-0.8,0-1,0.1
			c-0.4,0.1-0.6,0.4-0.6,0.7c0,0.1-0.1,1.2-0.1,3v19c0,4.7,0.7,7.9,2.2,9.6s3.7,2.5,6.7,2.5c5.4,0,8.4-3.1,9.2-9.2
			c0.1-0.9,0.2-4.8,0.2-11.7v-3v-4.2v-3.7c0-0.4,0-0.7,0-1.2c0-0.5,0-0.7,0-0.6c0-0.8-0.4-1.3-1.1-1.4c-0.2-0.1-1-0.1-2.2-0.1
			c-0.7,0-1.1-0.2-1.1-0.6c0-0.3,0.2-0.5,0.7-0.5c0.3,0,0.5,0,0.7,0c0.4,0,2,0,4.6,0c0.4,0,0.8,0,1.3,0c0.5,0,0.8,0,1,0h0.8
			C82.3,8.4,82.7,8.5,82.7,8.8z"/>
		<path class="st2" d="M98.5,44.8c0,0.3-0.2,0.5-0.6,0.5h-0.5c-0.2-0.1-2.6-0.2-7.2-0.2c-0.9,0-1.8,0-2.7,0.1
			c-0.5,0-1.2,0.1-2.1,0.1c-0.5,0-0.7-0.2-0.7-0.5c0-0.3,0.5-0.4,1.4-0.5c1.4,0,2.3-0.2,2.5-0.5c0.2-0.3,0.4-1.3,0.4-3.1V12.7
			c0-1.7-0.1-2.7-0.3-2.9c-0.2-0.4-1.2-0.6-3-0.6c-0.7,0-1-0.2-1-0.4c0-0.3,0.2-0.4,0.6-0.4h7.2c0.5,0,1.6,0,3.1,0.1l2-0.1
			c0.6,0,0.9,0.2,0.9,0.5c0,0.3-0.8,0.4-2.4,0.5c-0.9,0-1.4,0.2-1.6,0.5c-0.2,0.3-0.3,1-0.3,2.2v28.4c0,2,0.1,3.1,0.3,3.3
			c0.4,0.4,1.5,0.6,3.5,0.7C98.3,44.4,98.5,44.5,98.5,44.8z"/>
		<path class="st2" d="M130.3,17.8c0,0.5-0.2,0.7-0.6,0.7s-0.7-0.5-0.9-1.4c-0.1-0.6-0.1-1.3-0.2-1.9c-0.2-1.3-0.7-2.4-1.2-3.2
			c-0.7-1.2-2-1.9-3.7-2.2c-1.1-0.2-2-0.3-2.7-0.3c-1.7,0-2.7,0.1-3,0.1v32.1c0,1.3,0.3,2.1,1,2.4c0.4,0.2,1.3,0.3,3,0.3
			c0.4,0,0.6,0.2,0.6,0.5c0,0.3-0.3,0.5-0.9,0.5c-0.3,0-0.5,0-0.7-0.1c-2.1-0.1-3.6-0.1-4.5-0.1c-1.2,0-2.3,0-3.3,0.1
			c-1,0.1-2.3,0.1-3.9,0.1c-0.8,0-1.2-0.1-1.2-0.4c0-0.3,0.8-0.5,2.3-0.5c1.1,0,1.8-0.2,2.1-0.7c0.2-0.3,0.3-1,0.3-2.2V9.6
			c-3.5,0-5.7,0.2-6.5,0.5c-2.2,0.8-3.5,3-3.9,6.5c-0.1,1.1-0.4,1.6-0.7,1.6c-0.4,0-0.6-0.4-0.6-1.1c0-0.4,0-0.8,0.1-1.2l0.1-1.2
			c0.1-1.6,0.3-3.8,0.5-6.4h2.4l10.9,0.2c1.3,0,3.3,0,6,0l8.8-0.2c0.1,2,0.3,4.9,0.7,8.8c0,0.1,0,0.2,0.1,0.4S130.3,17.8,130.3,17.8
			z"/>
		<path class="st2" d="M161.5,17.8c0,0.5-0.2,0.7-0.6,0.7s-0.7-0.5-0.9-1.4c-0.1-0.6-0.1-1.3-0.2-1.9c-0.2-1.3-0.7-2.4-1.2-3.2
			c-0.7-1.2-2-1.9-3.7-2.2c-1.1-0.2-2-0.3-2.7-0.3c-1.7,0-2.7,0.1-3,0.1v32.1c0,1.3,0.3,2.1,1,2.4c0.4,0.2,1.3,0.3,3,0.3
			c0.4,0,0.6,0.2,0.6,0.5c0,0.3-0.3,0.5-0.9,0.5c-0.3,0-0.5,0-0.7-0.1c-2.1-0.1-3.6-0.1-4.5-0.1c-1.2,0-2.3,0-3.3,0.1
			c-1,0.1-2.3,0.1-3.9,0.1c-0.8,0-1.2-0.1-1.2-0.4c0-0.3,0.8-0.5,2.3-0.5c1.1,0,1.8-0.2,2.1-0.7c0.2-0.3,0.3-1,0.3-2.2V9.6
			c-3.5,0-5.7,0.2-6.5,0.5c-2.2,0.8-3.5,3-3.9,6.5c-0.1,1.1-0.4,1.6-0.7,1.6c-0.4,0-0.6-0.4-0.6-1.1c0-0.4,0-0.8,0.1-1.2l0.1-1.2
			c0.1-1.6,0.3-3.8,0.5-6.4h2.4l10.9,0.2c1.3,0,3.3,0,6,0l8.8-0.2c0.1,2,0.3,4.9,0.7,8.8c0,0.1,0,0.2,0.1,0.4S161.5,17.8,161.5,17.8
			z"/>
		<path class="st2" d="M198.4,27c0,5.3-1.6,9.8-4.8,13.4s-7.1,5.5-11.7,5.5c-4.9,0-9-1.9-12.3-5.6c-3.3-3.7-5-8.3-5-13.7
			c0-5.5,1.6-10.1,4.8-13.6c3.2-3.5,7.3-5.3,12.3-5.3c4.7,0,8.7,1.8,11.9,5.5S198.4,21.6,198.4,27z M192.4,27.3
			c0-6.5-1.3-11.6-4-15.2c-1.7-2.3-4-3.4-7-3.4c-2.8,0-5,0.9-6.6,2.6c-2.9,3.2-4.3,8.4-4.3,15.6c0,5.7,1,10.2,3,13.3
			s4.8,4.7,8.4,4.7c3.4,0,5.9-1.5,7.6-4.5C191.5,37.2,192.4,32.8,192.4,27.3z"/>
		<path class="st2" d="M234.8,8.8c0,0.4-0.4,0.5-1.3,0.5h-1.2h-1c-0.6,0-0.9,0.1-1,0.3s-0.2,0.8-0.2,1.8V42c0,1.9,0,3-0.1,3.3
			s-0.1,0.5-0.3,0.5c-0.2,0-0.5-0.2-0.7-0.6l-6.8-10c-3.9-5.8-8.7-13.1-14.4-21.8v29.8c0,0.5,0.3,0.8,0.8,0.9
			c0.5,0.1,1.7,0.2,3.6,0.2c0.5,0,0.7,0.1,0.7,0.4c0,0.4-0.5,0.5-1.4,0.5c-0.3,0-1.3-0.1-3-0.2c-0.6,0-1.1-0.1-1.6-0.1
			c0,0-0.3,0-0.9,0.1c-0.7,0.1-1.7,0.1-3,0.1h-0.5c-0.8,0-1.2-0.2-1.2-0.5c0-0.3,0.4-0.5,1.1-0.5c2.1,0,3.3-0.2,3.6-0.4
			c0.3-0.2,0.5-1,0.5-2.3V15.4c0-2.9-0.6-4.8-1.8-5.5c-0.6-0.4-1.6-0.5-3-0.5c-0.9,0-1.4-0.2-1.4-0.6c0-0.3,0.3-0.5,0.8-0.5
			c0.7,0,1.6,0,2.7,0.1c1.1,0.1,1.7,0.1,1.8,0.1c0.1,0,0.6,0,1.5-0.1c1.2,0,2.3-0.1,3.4-0.2l18.4,27.4V12c0-1.1,0-1.8-0.1-2
			c0-0.2-0.2-0.4-0.4-0.5c-0.2-0.1-1.1-0.2-2.6-0.2c-1.3,0-1.9-0.2-1.9-0.5c0-0.4,0.4-0.5,1.3-0.5h1.9c0.5,0,1,0,1.5,0
			c0.6,0,0.9,0,1,0c0,0,0.4,0,1,0c0.6,0,1.1,0,1.6,0h1.6C234.4,8.3,234.8,8.5,234.8,8.8z"/>
	</g>
	<g>
		<path class="st2" d="M71.7,60.5l-1.5,4.6h-2l5-14.8h2.3l5,14.8h-2L77,60.5H71.7z M76.6,59l-1.4-4.3c-0.3-1-0.5-1.8-0.8-2.7h0
			c-0.2,0.9-0.5,1.8-0.7,2.7L72.1,59H76.6z"/>
		<path class="st2" d="M82.7,50.6c1.2-0.2,2.5-0.3,4.1-0.3c2.7,0,4.7,0.6,6,1.8c1.3,1.2,2.1,2.9,2.1,5.3c0,2.4-0.7,4.4-2.1,5.7
			c-1.4,1.4-3.7,2.1-6.5,2.1c-1.4,0-2.5-0.1-3.5-0.2V50.6z M84.7,63.7c0.5,0.1,1.2,0.1,1.9,0.1c4.1,0,6.3-2.3,6.3-6.3
			c0-3.5-2-5.7-6-5.7c-1,0-1.7,0.1-2.2,0.2V63.7z"/>
		<path class="st2" d="M100.6,65.2l-4.8-14.8h2.1l2.3,7.3c0.6,2,1.2,3.8,1.6,5.5h0c0.4-1.7,1-3.6,1.7-5.5l2.5-7.3h2l-5.3,14.8H100.6
			z"/>
		<path class="st2" d="M122.2,57.6c0,5.1-3.1,7.8-6.9,7.8c-3.9,0-6.6-3-6.6-7.5c0-4.7,2.9-7.8,6.9-7.8
			C119.6,50.2,122.2,53.3,122.2,57.6z M110.7,57.9c0,3.2,1.7,6,4.7,6c3,0,4.7-2.8,4.7-6.1c0-2.9-1.5-6-4.7-6
			C112.3,51.7,110.7,54.6,110.7,57.9z"/>
		<path class="st2" d="M135,64.7c-0.7,0.4-2.1,0.7-3.9,0.7c-4.2,0-7.3-2.7-7.3-7.5c0-4.6,3.1-7.8,7.7-7.8c1.8,0,3,0.4,3.5,0.7
			l-0.5,1.6c-0.7-0.3-1.8-0.6-3-0.6c-3.5,0-5.8,2.2-5.8,6.1c0,3.6,2.1,5.9,5.7,5.9c1.2,0,2.3-0.2,3.1-0.6L135,64.7z"/>
		<path class="st2" d="M139.8,60.5l-1.5,4.6h-2l5-14.8h2.3l5,14.8h-2l-1.6-4.6H139.8z M144.7,59l-1.4-4.3c-0.3-1-0.5-1.8-0.8-2.7h0
			c-0.2,0.9-0.5,1.8-0.7,2.7l-1.4,4.3H144.7z"/>
		<path class="st2" d="M160.8,64.7c-0.7,0.4-2.1,0.7-3.9,0.7c-4.2,0-7.3-2.7-7.3-7.5c0-4.6,3.1-7.8,7.7-7.8c1.8,0,3,0.4,3.5,0.7
			l-0.5,1.6c-0.7-0.3-1.8-0.6-3-0.6c-3.5,0-5.8,2.2-5.8,6.1c0,3.6,2.1,5.9,5.7,5.9c1.2,0,2.3-0.2,3.1-0.6L160.8,64.7z"/>
		<path class="st2" d="M165.1,50.4v14.8h-1.9V50.4H165.1z"/>
		<path class="st2" d="M170.9,60.5l-1.5,4.6h-2l5-14.8h2.3l5,14.8h-2l-1.6-4.6H170.9z M175.7,59l-1.4-4.3c-0.3-1-0.5-1.8-0.8-2.7h0
			c-0.2,0.9-0.5,1.8-0.7,2.7l-1.4,4.3H175.7z"/>
	</g>
</g>
<g>
</g>
<g>
</g>
<g>
</g>
<g>
</g>
<g>
</g>
<g>
</g>
</svg>
